<?xml version="1.0" encoding="UTF-8"?>
<svg xmlns="http://www.w3.org/2000/svg" xmlns:xlink="http://www.w3.org/1999/xlink" width="75px" height="px" viewBox="0 0 75 75" version="1.1">
<defs>
<filter id="alpha" filterUnits="objectBoundingBox" x="0%" y="0%" width="100%" height="100%">
  <feColorMatrix type="matrix" in="SourceGraphic" values="0 0 0 0 1 0 0 0 0 1 0 0 0 0 1 0 0 0 1 0"/>
</filter>
<mask id="mask0">
  <g filter="url(#alpha)">
<rect x="0" y="0" width="75" height="75" style="fill:rgb(0%,0%,0%);fill-opacity:0.501961;stroke:none;"/>
  </g>
</mask>
<clipPath id="clip1">
  <rect x="0" y="0" width="75" height="75"/>
</clipPath>
<g id="surface5" clip-path="url(#clip1)">
<path style="fill:none;stroke-width:10;stroke-linecap:butt;stroke-linejoin:miter;stroke:rgb(100%,100%,100%);stroke-opacity:1;stroke-miterlimit:10;" d="M 43.893333 286.8 C 46.986667 200.4 138.106667 101.706667 250 101.706667 C 361.386667 101.706667 452.213333 199.493333 456.106667 285.6 " transform="matrix(0.146484,0,0,0.146484,0,0)"/>
</g>
<mask id="mask1">
  <g filter="url(#alpha)">
<rect x="0" y="0" width="75" height="75" style="fill:rgb(0%,0%,0%);fill-opacity:0.25098;stroke:none;"/>
  </g>
</mask>
<clipPath id="clip2">
  <rect x="0" y="0" width="75" height="75"/>
</clipPath>
<g id="surface8" clip-path="url(#clip2)">
<path style="fill:none;stroke-width:10;stroke-linecap:butt;stroke-linejoin:miter;stroke:rgb(10.196079%,10.196079%,10.196079%);stroke-opacity:1;stroke-miterlimit:10;" d="M 410.293333 307.493333 C 410.293333 368.8 338.613333 396.506667 250.106667 396.506667 C 161.6 396.506667 89.893333 368.8 89.893333 307.493333 C 89.893333 246.186667 161.6 174.613333 250.106667 174.613333 C 338.613333 174.613333 410.293333 246.186667 410.293333 307.493333 Z M 410.293333 307.493333 " transform="matrix(0.146484,0,0,0.146484,0,0)"/>
</g>
<mask id="mask2">
  <g filter="url(#alpha)">
<rect x="0" y="0" width="75" height="75" style="fill:rgb(0%,0%,0%);fill-opacity:0.25098;stroke:none;"/>
  </g>
</mask>
<clipPath id="clip3">
  <rect x="0" y="0" width="75" height="75"/>
</clipPath>
<g id="surface11" clip-path="url(#clip3)">
<path style="fill:none;stroke-width:10;stroke-linecap:butt;stroke-linejoin:miter;stroke:rgb(10.196079%,10.196079%,10.196079%);stroke-opacity:1;stroke-miterlimit:10;" d="M 455.6 295.413333 C 446.986667 374 358.293333 409.706667 250.106667 409.706667 C 141.813333 409.706667 53.013333 373.893333 44.613333 295.2 " transform="matrix(0.146484,0,0,0.146484,0,0)"/>
</g>
<mask id="mask3">
  <g filter="url(#alpha)">
<rect x="0" y="0" width="75" height="75" style="fill:rgb(0%,0%,0%);fill-opacity:0.25098;stroke:none;"/>
  </g>
</mask>
<clipPath id="clip4">
  <rect x="0" y="0" width="75" height="75"/>
</clipPath>
<g id="surface14" clip-path="url(#clip4)">
<path style=" stroke:none;fill-rule:nonzero;fill:rgb(0%,0%,0%);fill-opacity:1;" d="M 27.976562 39.125 L 22.308594 39.125 C 21.898438 39.125 21.5625 38.789062 21.5625 38.378906 C 21.5625 37.96875 21.898438 37.632812 22.308594 37.632812 L 27.976562 37.632812 C 28.390625 37.632812 28.726562 37.96875 28.726562 38.378906 C 28.726562 38.789062 28.390625 39.125 27.976562 39.125 Z M 27.976562 39.125 "/>
<path style=" stroke:none;fill-rule:nonzero;fill:rgb(0%,0%,0%);fill-opacity:1;" d="M 31.640625 48.0625 L 23.554688 48.0625 C 23.144531 48.0625 22.808594 47.726562 22.808594 47.3125 C 22.808594 46.90625 23.144531 46.566406 23.554688 46.566406 L 31.640625 46.566406 C 32.050781 46.566406 32.386719 46.90625 32.386719 47.3125 C 32.386719 47.726562 32.050781 48.0625 31.640625 48.0625 Z M 31.640625 48.0625 "/>
<path style=" stroke:none;fill-rule:nonzero;fill:rgb(0%,0%,0%);fill-opacity:1;" d="M 31.304688 41.367188 L 19.292969 41.367188 C 18.882812 41.367188 18.546875 41.03125 18.546875 40.621094 C 18.546875 40.210938 18.882812 39.871094 19.292969 39.871094 L 31.304688 39.871094 C 31.714844 39.871094 32.050781 40.210938 32.050781 40.621094 C 32.050781 41.03125 31.714844 41.367188 31.304688 41.367188 Z M 31.304688 41.367188 "/>
<path style=" stroke:none;fill-rule:nonzero;fill:rgb(0%,0%,0%);fill-opacity:1;" d="M 32.78125 45.835938 L 20.773438 45.835938 C 20.359375 45.835938 20.023438 45.496094 20.023438 45.085938 C 20.023438 44.675781 20.363281 44.339844 20.773438 44.339844 L 32.78125 44.339844 C 33.195312 44.339844 33.53125 44.675781 33.53125 45.085938 C 33.53125 45.496094 33.195312 45.835938 32.78125 45.835938 Z M 32.78125 45.835938 "/>
<path style=" stroke:none;fill-rule:nonzero;fill:rgb(0%,0%,0%);fill-opacity:1;" d="M 33.089844 43.609375 L 19.292969 43.609375 C 18.882812 43.609375 18.546875 43.273438 18.546875 42.859375 C 18.546875 42.449219 18.882812 42.113281 19.292969 42.113281 L 33.089844 42.113281 C 33.5 42.113281 33.835938 42.449219 33.835938 42.859375 C 33.835938 43.273438 33.5 43.609375 33.089844 43.609375 Z M 33.089844 43.609375 "/>
<path style=" stroke:none;fill-rule:nonzero;fill:rgb(0%,0%,0%);fill-opacity:1;" d="M 50.828125 39.125 L 45.160156 39.125 C 44.75 39.125 44.414062 38.789062 44.414062 38.378906 C 44.414062 37.96875 44.75 37.632812 45.160156 37.632812 L 50.828125 37.632812 C 51.242188 37.632812 51.578125 37.96875 51.578125 38.378906 C 51.578125 38.789062 51.242188 39.125 50.828125 39.125 Z M 50.828125 39.125 "/>
<path style=" stroke:none;fill-rule:nonzero;fill:rgb(0%,0%,0%);fill-opacity:1;" d="M 49.585938 48.0625 L 41.5 48.0625 C 41.089844 48.0625 40.75 47.726562 40.75 47.3125 C 40.75 46.90625 41.089844 46.566406 41.5 46.566406 L 49.585938 46.566406 C 49.996094 46.566406 50.332031 46.90625 50.332031 47.3125 C 50.332031 47.726562 49.996094 48.0625 49.585938 48.0625 Z M 49.585938 48.0625 "/>
<path style=" stroke:none;fill-rule:nonzero;fill:rgb(0%,0%,0%);fill-opacity:1;" d="M 53.847656 41.367188 L 41.835938 41.367188 C 41.425781 41.367188 41.089844 41.03125 41.089844 40.621094 C 41.089844 40.210938 41.425781 39.871094 41.835938 39.871094 L 53.847656 39.871094 C 54.257812 39.871094 54.59375 40.210938 54.59375 40.621094 C 54.59375 41.03125 54.257812 41.367188 53.847656 41.367188 Z M 53.847656 41.367188 "/>
<path style=" stroke:none;fill-rule:nonzero;fill:rgb(0%,0%,0%);fill-opacity:1;" d="M 52.367188 45.835938 L 40.355469 45.835938 C 39.945312 45.835938 39.609375 45.496094 39.609375 45.085938 C 39.609375 44.675781 39.945312 44.339844 40.355469 44.339844 L 52.367188 44.339844 C 52.777344 44.339844 53.117188 44.675781 53.117188 45.085938 C 53.117188 45.496094 52.777344 45.835938 52.367188 45.835938 Z M 52.367188 45.835938 "/>
<path style=" stroke:none;fill-rule:nonzero;fill:rgb(0%,0%,0%);fill-opacity:1;" d="M 53.847656 43.609375 L 40.050781 43.609375 C 39.640625 43.609375 39.300781 43.273438 39.300781 42.859375 C 39.300781 42.449219 39.640625 42.113281 40.050781 42.113281 L 53.847656 42.113281 C 54.257812 42.113281 54.59375 42.449219 54.59375 42.859375 C 54.59375 43.273438 54.257812 43.609375 53.847656 43.609375 Z M 53.847656 43.609375 "/>
</g>
</defs>
<g id="surface1">
<path style=" stroke:none;fill-rule:nonzero;fill:rgb(69.803923%,92.156863%,94.901961%);fill-opacity:1;" d="M 65.828125 37.5 C 65.828125 21.855469 53.144531 9.171875 37.5 9.171875 C 21.855469 9.171875 9.171875 21.855469 9.171875 37.5 C 9.171875 53.144531 21.855469 65.828125 37.5 65.828125 C 53.144531 65.828125 65.828125 53.144531 65.828125 37.5 Z M 65.828125 37.5 "/>
<path style=" stroke:none;fill-rule:nonzero;fill:rgb(58.431375%,63.529414%,67.450982%);fill-opacity:1;" d="M 56.335938 11.367188 L 55.605469 10.824219 L 56.148438 10.09375 C 56.382812 9.769531 56.324219 9.316406 56 9.066406 C 55.679688 8.832031 55.226562 8.890625 54.976562 9.214844 L 54.433594 9.945312 L 53.703125 9.402344 C 53.378906 9.167969 52.925781 9.226562 52.675781 9.550781 C 52.441406 9.871094 52.5 10.328125 52.820312 10.574219 L 53.554688 11.117188 L 53.011719 11.851562 C 52.777344 12.171875 52.835938 12.625 53.160156 12.875 C 53.289062 12.976562 53.4375 13.023438 53.597656 13.023438 C 53.820312 13.023438 54.039062 12.917969 54.183594 12.730469 L 54.726562 11.996094 L 55.460938 12.539062 C 55.589844 12.640625 55.738281 12.6875 55.898438 12.6875 C 56.117188 12.6875 56.335938 12.582031 56.484375 12.390625 C 56.734375 12.070312 56.660156 11.617188 56.335938 11.367188 Z M 56.335938 11.367188 "/>
<path style=" stroke:none;fill-rule:nonzero;fill:rgb(58.431375%,63.529414%,67.450982%);fill-opacity:1;" d="M 8.042969 55.226562 C 6.957031 55.226562 6.078125 56.101562 6.078125 57.1875 C 6.078125 58.269531 6.957031 59.148438 8.042969 59.148438 C 9.125 59.148438 10.003906 58.269531 10.003906 57.1875 C 10.003906 56.101562 9.125 55.226562 8.042969 55.226562 Z M 8.042969 57.6875 C 7.765625 57.6875 7.542969 57.464844 7.542969 57.1875 C 7.542969 56.910156 7.765625 56.691406 8.042969 56.691406 C 8.320312 56.691406 8.539062 56.910156 8.539062 57.1875 C 8.539062 57.464844 8.320312 57.6875 8.042969 57.6875 Z M 8.042969 57.6875 "/>
<path style=" stroke:none;fill-rule:nonzero;fill:rgb(84.705883%,84.705883%,84.705883%);fill-opacity:1;" d="M 66.839844 42.085938 C 66.839844 54.886719 53.320312 60.6875 36.636719 60.6875 C 19.953125 60.6875 6.429688 54.886719 6.429688 42.085938 C 6.429688 29.28125 19.953125 14.3125 36.636719 14.3125 C 53.320312 14.3125 66.839844 29.28125 66.839844 42.085938 Z M 66.839844 42.085938 "/>
<path style=" stroke:none;fill-rule:nonzero;fill:rgb(14.901961%,14.901961%,14.901961%);fill-opacity:1;" d="M 60.101562 43.535156 C 60.101562 52.515625 49.601562 56.570312 36.636719 56.570312 C 23.671875 56.570312 13.167969 52.515625 13.167969 43.535156 C 13.167969 34.554688 23.671875 24.066406 36.636719 24.066406 C 49.601562 24.066406 60.101562 34.554688 60.101562 43.535156 Z M 60.101562 43.535156 "/>
<use xlink:href="#surface5" mask="url(#mask0)"/>
<use xlink:href="#surface8" mask="url(#mask1)"/>
<use xlink:href="#surface11" mask="url(#mask2)"/>
<use xlink:href="#surface14" mask="url(#mask3)"/>
<path style="fill:none;stroke-width:10;stroke-linecap:butt;stroke-linejoin:miter;stroke:rgb(10.196079%,10.196079%,10.196079%);stroke-opacity:1;stroke-miterlimit:10;" d="M 410.293333 301.2 C 410.293333 362.506667 338.613333 390.186667 250.106667 390.186667 C 161.6 390.186667 89.893333 362.506667 89.893333 301.2 C 89.893333 239.893333 161.6 168.293333 250.106667 168.293333 C 338.613333 168.293333 410.293333 239.893333 410.293333 301.2 Z M 410.293333 301.2 " transform="matrix(0.146484,0,0,0.146484,0,0)"/>
<path style="fill:none;stroke-width:10;stroke-linecap:butt;stroke-linejoin:miter;stroke:rgb(10.196079%,10.196079%,10.196079%);stroke-opacity:1;stroke-miterlimit:10;" d="M 456.293333 287.306667 C 456.293333 374.693333 364 414.293333 250.106667 414.293333 C 136.213333 414.293333 43.893333 374.693333 43.893333 287.306667 C 43.893333 199.893333 136.213333 97.706667 250.106667 97.706667 C 364 97.706667 456.293333 199.893333 456.293333 287.306667 Z M 456.293333 287.306667 " transform="matrix(0.146484,0,0,0.146484,0,0)"/>
<path style=" stroke:none;fill-rule:nonzero;fill:rgb(94.509804%,78.823531%,24.313726%);fill-opacity:1;" d="M 27.976562 38.570312 L 22.308594 38.570312 C 21.898438 38.570312 21.5625 38.234375 21.5625 37.820312 C 21.5625 37.414062 21.898438 37.074219 22.308594 37.074219 L 27.976562 37.074219 C 28.390625 37.074219 28.726562 37.414062 28.726562 37.820312 C 28.726562 38.234375 28.390625 38.570312 27.976562 38.570312 Z M 27.976562 38.570312 "/>
<path style=" stroke:none;fill-rule:nonzero;fill:rgb(94.509804%,78.823531%,24.313726%);fill-opacity:1;" d="M 31.640625 47.503906 L 23.554688 47.503906 C 23.144531 47.503906 22.808594 47.167969 22.808594 46.757812 C 22.808594 46.347656 23.144531 46.011719 23.554688 46.011719 L 31.640625 46.011719 C 32.050781 46.011719 32.386719 46.347656 32.386719 46.757812 C 32.386719 47.167969 32.050781 47.503906 31.640625 47.503906 Z M 31.640625 47.503906 "/>
<path style=" stroke:none;fill-rule:nonzero;fill:rgb(94.509804%,78.823531%,24.313726%);fill-opacity:1;" d="M 31.304688 40.8125 L 19.292969 40.8125 C 18.882812 40.8125 18.546875 40.472656 18.546875 40.0625 C 18.546875 39.652344 18.882812 39.316406 19.292969 39.316406 L 31.304688 39.316406 C 31.714844 39.316406 32.050781 39.652344 32.050781 40.0625 C 32.050781 40.472656 31.714844 40.8125 31.304688 40.8125 Z M 31.304688 40.8125 "/>
<path style=" stroke:none;fill-rule:nonzero;fill:rgb(94.509804%,78.823531%,24.313726%);fill-opacity:1;" d="M 32.78125 45.277344 L 20.773438 45.277344 C 20.359375 45.277344 20.023438 44.941406 20.023438 44.53125 C 20.023438 44.121094 20.363281 43.785156 20.773438 43.785156 L 32.78125 43.785156 C 33.195312 43.785156 33.53125 44.121094 33.53125 44.53125 C 33.53125 44.941406 33.195312 45.277344 32.78125 45.277344 Z M 32.78125 45.277344 "/>
<path style=" stroke:none;fill-rule:nonzero;fill:rgb(94.509804%,78.823531%,24.313726%);fill-opacity:1;" d="M 33.089844 43.039062 L 19.292969 43.039062 C 18.882812 43.039062 18.546875 42.699219 18.546875 42.289062 C 18.546875 41.878906 18.882812 41.542969 19.292969 41.542969 L 33.089844 41.542969 C 33.5 41.542969 33.835938 41.878906 33.835938 42.289062 C 33.835938 42.699219 33.5 43.039062 33.089844 43.039062 Z M 33.089844 43.039062 "/>
<path style=" stroke:none;fill-rule:nonzero;fill:rgb(94.509804%,78.823531%,24.313726%);fill-opacity:1;" d="M 50.828125 38.570312 L 45.160156 38.570312 C 44.75 38.570312 44.414062 38.234375 44.414062 37.820312 C 44.414062 37.414062 44.75 37.074219 45.160156 37.074219 L 50.828125 37.074219 C 51.242188 37.074219 51.578125 37.414062 51.578125 37.820312 C 51.578125 38.234375 51.242188 38.570312 50.828125 38.570312 Z M 50.828125 38.570312 "/>
<path style=" stroke:none;fill-rule:nonzero;fill:rgb(94.509804%,78.823531%,24.313726%);fill-opacity:1;" d="M 49.585938 47.503906 L 41.5 47.503906 C 41.089844 47.503906 40.75 47.167969 40.75 46.757812 C 40.75 46.347656 41.089844 46.011719 41.5 46.011719 L 49.585938 46.011719 C 49.996094 46.011719 50.332031 46.347656 50.332031 46.757812 C 50.332031 47.167969 49.996094 47.503906 49.585938 47.503906 Z M 49.585938 47.503906 "/>
<path style=" stroke:none;fill-rule:nonzero;fill:rgb(94.509804%,78.823531%,24.313726%);fill-opacity:1;" d="M 53.847656 40.8125 L 41.835938 40.8125 C 41.425781 40.8125 41.089844 40.472656 41.089844 40.0625 C 41.089844 39.652344 41.425781 39.316406 41.835938 39.316406 L 53.847656 39.316406 C 54.257812 39.316406 54.59375 39.652344 54.59375 40.0625 C 54.59375 40.472656 54.257812 40.8125 53.847656 40.8125 Z M 53.847656 40.8125 "/>
<path style=" stroke:none;fill-rule:nonzero;fill:rgb(94.509804%,78.823531%,24.313726%);fill-opacity:1;" d="M 52.367188 45.277344 L 40.355469 45.277344 C 39.945312 45.277344 39.609375 44.941406 39.609375 44.53125 C 39.609375 44.121094 39.945312 43.785156 40.355469 43.785156 L 52.367188 43.785156 C 52.777344 43.785156 53.117188 44.121094 53.117188 44.53125 C 53.117188 44.941406 52.777344 45.277344 52.367188 45.277344 Z M 52.367188 45.277344 "/>
<path style=" stroke:none;fill-rule:nonzero;fill:rgb(94.509804%,78.823531%,24.313726%);fill-opacity:1;" d="M 53.847656 43.039062 L 40.050781 43.039062 C 39.640625 43.039062 39.300781 42.699219 39.300781 42.289062 C 39.300781 41.878906 39.640625 41.542969 40.050781 41.542969 L 53.847656 41.542969 C 54.257812 41.542969 54.59375 41.878906 54.59375 42.289062 C 54.59375 42.699219 54.257812 43.039062 53.847656 43.039062 Z M 53.847656 43.039062 "/>
<path style=" stroke:none;fill-rule:nonzero;fill:rgb(100%,83.529413%,30.980393%);fill-opacity:1;" d="M 8.042969 22.28125 C 6.957031 22.28125 6.078125 23.160156 6.078125 24.242188 C 6.078125 25.328125 6.957031 26.207031 8.042969 26.207031 C 9.125 26.207031 10.003906 25.328125 10.003906 24.242188 C 10.003906 23.160156 9.125 22.28125 8.042969 22.28125 Z M 8.042969 24.726562 C 7.765625 24.726562 7.542969 24.507812 7.542969 24.226562 C 7.542969 23.949219 7.765625 23.730469 8.042969 23.730469 C 8.320312 23.730469 8.539062 23.949219 8.539062 24.226562 C 8.539062 24.507812 8.320312 24.726562 8.042969 24.726562 Z M 8.042969 24.726562 "/>
<path style=" stroke:none;fill-rule:nonzero;fill:rgb(100%,83.529413%,30.980393%);fill-opacity:1;" d="M 24.59375 8.992188 L 23.714844 8.746094 L 23.964844 7.867188 C 24.082031 7.46875 23.847656 7.074219 23.46875 6.957031 C 23.070312 6.839844 22.675781 7.074219 22.558594 7.457031 L 22.308594 8.335938 L 21.429688 8.085938 C 21.035156 7.96875 20.640625 8.203125 20.523438 8.582031 C 20.40625 8.980469 20.640625 9.375 21.019531 9.492188 L 21.898438 9.742188 L 21.652344 10.621094 C 21.535156 11.015625 21.769531 11.410156 22.148438 11.527344 C 22.222656 11.542969 22.28125 11.558594 22.355469 11.558594 C 22.675781 11.558594 22.96875 11.351562 23.058594 11.03125 L 23.304688 10.152344 L 24.183594 10.398438 C 24.257812 10.414062 24.316406 10.429688 24.390625 10.429688 C 24.710938 10.429688 25.003906 10.226562 25.09375 9.902344 C 25.195312 9.507812 24.976562 9.097656 24.59375 8.992188 Z M 24.59375 8.992188 "/>
<path style=" stroke:none;fill-rule:nonzero;fill:rgb(100%,83.529413%,30.980393%);fill-opacity:1;" d="M 69.226562 26.292969 L 68.363281 26.03125 L 68.628906 25.164062 C 68.746094 24.785156 68.527344 24.375 68.144531 24.242188 C 67.765625 24.125 67.355469 24.34375 67.222656 24.726562 L 66.957031 25.589844 L 66.09375 25.328125 C 65.710938 25.210938 65.304688 25.429688 65.171875 25.8125 C 65.054688 26.191406 65.273438 26.601562 65.65625 26.734375 L 66.519531 26.996094 L 66.253906 27.863281 C 66.136719 28.242188 66.359375 28.652344 66.738281 28.785156 C 66.8125 28.8125 66.882812 28.8125 66.957031 28.8125 C 67.265625 28.8125 67.558594 28.609375 67.660156 28.300781 L 67.925781 27.4375 L 68.789062 27.699219 C 68.863281 27.730469 68.9375 27.730469 69.007812 27.730469 C 69.316406 27.730469 69.609375 27.523438 69.710938 27.21875 C 69.84375 26.820312 69.625 26.410156 69.226562 26.292969 Z M 69.226562 26.292969 "/>
<path style=" stroke:none;fill-rule:nonzero;fill:rgb(100%,83.529413%,30.980393%);fill-opacity:1;" d="M 68.246094 56.894531 L 67.484375 56.398438 L 67.984375 55.632812 C 68.203125 55.296875 68.113281 54.84375 67.777344 54.625 C 67.441406 54.40625 66.988281 54.492188 66.765625 54.828125 L 66.269531 55.589844 L 65.507812 55.09375 C 65.171875 54.875 64.71875 54.960938 64.496094 55.296875 C 64.277344 55.632812 64.367188 56.089844 64.703125 56.308594 L 65.464844 56.804688 L 64.964844 57.566406 C 64.746094 57.90625 64.835938 58.359375 65.171875 58.578125 C 65.289062 58.667969 65.433594 58.695312 65.566406 58.695312 C 65.800781 58.695312 66.035156 58.578125 66.179688 58.359375 L 66.679688 57.597656 L 67.441406 58.09375 C 67.558594 58.183594 67.703125 58.210938 67.835938 58.210938 C 68.070312 58.210938 68.304688 58.09375 68.453125 57.875 C 68.671875 57.570312 68.585938 57.113281 68.246094 56.894531 Z M 68.246094 56.894531 "/>
</g>
</svg>
