<?xml version="1.0" encoding="UTF-8"?>
<svg version="1.1" xmlns="http://www.w3.org/2000/svg" width="73" height="22">
<path d="M0 0 C0.39832031 0.92683594 0.79664062 1.85367187 1.20703125 2.80859375 C1.73683594 4.00613281 2.26664063 5.20367187 2.8125 6.4375 C3.33457031 7.63246094 3.85664063 8.82742188 4.39453125 10.05859375 C5.72266203 13.28600636 5.72266203 13.28600636 9 14 C13.59216906 9.93265026 16.2167907 5.43614072 19 0 C24.4611399 0.35233161 24.4611399 0.35233161 27 1 C28.5 3.0625 28.5 3.0625 29 5 C29.721875 4.34 30.44375 3.68 31.1875 3 C34.22207622 0.84207914 35.3829832 0.41345673 39 1 C41 3 41 3 41.1875 6 C41 9 41 9 40 11 C40.48210937 10.6390625 40.96421875 10.278125 41.4609375 9.90625 C42.40839844 9.21015625 42.40839844 9.21015625 43.375 8.5 C44.00148438 8.0359375 44.62796875 7.571875 45.2734375 7.09375 C47 6 47 6 49 6 C49.234375 8.296875 49.234375 8.296875 49 11 C47.390625 12.765625 47.390625 12.765625 45.25 14.25 C44.20585937 15.00023437 44.20585937 15.00023437 43.140625 15.765625 C41.02377935 16.98628782 39.42235806 17.70287084 37 18 C34.6875 16.4375 34.6875 16.4375 33 14 C33.39453125 10.84765625 33.39453125 10.84765625 34 8 C32.35357683 9.31176002 30.70787757 10.6244287 29.0625 11.9375 C28.14597656 12.66839844 27.22945312 13.39929688 26.28515625 14.15234375 C24.59148731 15.51938711 24.59148731 15.51938711 23 17 C21.33388095 17.042721 19.66617115 17.04063832 18 17 C17.34 17 16.68 17 16 17 C15.443125 17.66 14.88625 18.32 14.3125 19 C12 21 12 21 8.625 21.5625 C3.14609582 20.71232521 0.86686256 17.86686256 -3 14 C-3.54269531 14.42152344 -4.08539062 14.84304688 -4.64453125 15.27734375 C-5.35996094 15.82519531 -6.07539063 16.37304688 -6.8125 16.9375 C-7.52019531 17.48277344 -8.22789063 18.02804688 -8.95703125 18.58984375 C-12.17273358 20.80947767 -14.82079933 21.13739153 -18.625 21.125 C-19.81996094 21.12886719 -19.81996094 21.12886719 -21.0390625 21.1328125 C-23 21 -23 21 -24 20 C-24.53013017 15.978584 -24.90328429 11.81406472 -23.05859375 8.109375 C-20.53442764 4.97592741 -17.6831825 2.57850678 -14 1 C-10.3125 0.6875 -10.3125 0.6875 -7 1 C-6.34 1.66 -5.68 2.32 -5 3 C-4.54625 2.505 -4.0925 2.01 -3.625 1.5 C-2 0 -2 0 0 0 Z M-9 7 C-9.969375 7.0825 -10.93875 7.165 -11.9375 7.25 C-15.84972067 8.20809486 -16.85743805 9.66712586 -19 13 C-19.33 13.99 -19.66 14.98 -20 16 C-17.7733299 17.39890367 -17.7733299 17.39890367 -14.25 15.875 C-10.09172329 14.24355932 -7.26416963 12.01935691 -4 9 C-4.33 8.01 -4.66 7.02 -5 6 C-6.36893239 5.94729537 -6.36893239 5.94729537 -9 7 Z " fill="#057836" transform="translate(24,1)"/>
<path d="M0 0 C0.33 0.99 0.66 1.98 1 3 C1.721875 2.34 2.44375 1.68 3.1875 1 C6.22207622 -1.15792086 7.3829832 -1.58654327 11 -1 C13 1 13 1 13.1875 4 C13 7 13 7 12 9 C12.48210937 8.6390625 12.96421875 8.278125 13.4609375 7.90625 C14.09257813 7.4421875 14.72421875 6.978125 15.375 6.5 C16.31472656 5.80390625 16.31472656 5.80390625 17.2734375 5.09375 C19 4 19 4 21 4 C21.234375 6.296875 21.234375 6.296875 21 9 C19.390625 10.765625 19.390625 10.765625 17.25 12.25 C16.55390625 12.75015625 15.8578125 13.2503125 15.140625 13.765625 C13.02377935 14.98628782 11.42235806 15.70287084 9 16 C6.6875 14.4375 6.6875 14.4375 5 12 C5.39453125 8.84765625 5.39453125 8.84765625 6 6 C4.35357683 7.31176002 2.70787757 8.6244287 1.0625 9.9375 C0.14597656 10.66839844 -0.77054688 11.39929688 -1.71484375 12.15234375 C-3.40851269 13.51938711 -3.40851269 13.51938711 -5 15 C-6.66617115 15.04063832 -8.33388095 15.042721 -10 15 C-9.88529863 13.24929483 -9.75780972 11.49942464 -9.625 9.75 C-9.55539063 8.77546875 -9.48578125 7.8009375 -9.4140625 6.796875 C-9.01089652 4.07360292 -8.47210492 2.30876887 -7 0 C-4.3333581 -1.33332095 -2.83319697 -0.67102033 0 0 Z " fill="#057836" transform="translate(52,3)"/>
<path d="M0 0 C0.66 0 1.32 0 2 0 C2.39832031 0.92683594 2.79664063 1.85367187 3.20703125 2.80859375 C3.73683594 4.00613281 4.26664063 5.20367187 4.8125 6.4375 C5.33457031 7.63246094 5.85664063 8.82742188 6.39453125 10.05859375 C7.72266203 13.28600636 7.72266203 13.28600636 11 14 C15.59216906 9.93265026 18.2167907 5.43614072 21 0 C21.99 0.33 22.98 0.66 24 1 C23.566875 1.99 23.566875 1.99 23.125 3 C22.23394441 5.37614823 21.65344001 7.47931029 21.125 9.9375 C20.18021452 13.89660105 18.52008603 16.77113977 16 20 C12.85088521 21.57455739 10.47991184 21.34799118 7 21 C3.625 18.9375 3.625 18.9375 1 16 C0.125 12.1875 0.125 12.1875 0 9 C-0.66 9 -1.32 9 -2 9 C-2.6875 7.3125 -2.6875 7.3125 -3 5 C-1.6875 2.25 -1.6875 2.25 0 0 Z " fill="#7FBB05" transform="translate(22,1)"/>
<path d="M0 0 C1.99954746 -0.04254356 4.00041636 -0.04080783 6 0 C7 1 7 1 7.1875 3.9375 C7 7 7 7 5 9 C0.44444444 8.44444444 0.44444444 8.44444444 -1 7 C-0.71269945 4.66055264 -0.38063221 2.3260857 0 0 Z " fill="#80BB04" transform="translate(30,0)"/>
</svg>
