<?xml version="1.0" encoding="UTF-8"?>
<svg xmlns="http://www.w3.org/2000/svg" xmlns:xlink="http://www.w3.org/1999/xlink" width="75px" height="px" viewBox="0 0 75 75" version="1.1">
<defs>
<filter id="alpha" filterUnits="objectBoundingBox" x="0%" y="0%" width="100%" height="100%">
  <feColorMatrix type="matrix" in="SourceGraphic" values="0 0 0 0 1 0 0 0 0 1 0 0 0 0 1 0 0 0 1 0"/>
</filter>
<mask id="mask0">
  <g filter="url(#alpha)">
<rect x="0" y="0" width="75" height="75" style="fill:rgb(0%,0%,0%);fill-opacity:0.501961;stroke:none;"/>
  </g>
</mask>
<clipPath id="clip1">
  <rect x="0" y="0" width="75" height="75"/>
</clipPath>
<g id="surface5" clip-path="url(#clip1)">
<path style="fill:none;stroke-width:10;stroke-linecap:butt;stroke-linejoin:miter;stroke:rgb(100%,100%,100%);stroke-opacity:1;stroke-miterlimit:10;" d="M 293.706667 240.186667 L 218.106667 240.186667 " transform="matrix(0.146484,0,0,0.146484,0,0)"/>
</g>
<mask id="mask1">
  <g filter="url(#alpha)">
<rect x="0" y="0" width="75" height="75" style="fill:rgb(0%,0%,0%);fill-opacity:0.501961;stroke:none;"/>
  </g>
</mask>
<clipPath id="clip2">
  <rect x="0" y="0" width="75" height="75"/>
</clipPath>
<g id="surface8" clip-path="url(#clip2)">
<path style="fill:none;stroke-width:10;stroke-linecap:butt;stroke-linejoin:miter;stroke:rgb(100%,100%,100%);stroke-opacity:1;stroke-miterlimit:10;" d="M 285.386667 169.093333 L 226.4 169.093333 " transform="matrix(0.146484,0,0,0.146484,0,0)"/>
</g>
<mask id="mask2">
  <g filter="url(#alpha)">
<rect x="0" y="0" width="75" height="75" style="fill:rgb(0%,0%,0%);fill-opacity:0.501961;stroke:none;"/>
  </g>
</mask>
<clipPath id="clip3">
  <rect x="0" y="0" width="75" height="75"/>
</clipPath>
<g id="surface11" clip-path="url(#clip3)">
<path style="fill:none;stroke-width:10;stroke-linecap:round;stroke-linejoin:miter;stroke:rgb(100%,100%,100%);stroke-opacity:1;stroke-miterlimit:10;" d="M 320.293333 357.013333 L 191.493333 357.013333 " transform="matrix(0.146484,0,0,0.146484,0,0)"/>
</g>
<mask id="mask3">
  <g filter="url(#alpha)">
<rect x="0" y="0" width="75" height="75" style="fill:rgb(0%,0%,0%);fill-opacity:0.25098;stroke:none;"/>
  </g>
</mask>
<clipPath id="clip4">
  <rect x="0" y="0" width="75" height="75"/>
</clipPath>
<g id="surface14" clip-path="url(#clip4)">
<path style="fill:none;stroke-width:10;stroke-linecap:butt;stroke-linejoin:miter;stroke:rgb(10.196079%,10.196079%,10.196079%);stroke-opacity:1;stroke-miterlimit:10;" d="M 320.293333 384.8 L 191.493333 384.8 " transform="matrix(0.146484,0,0,0.146484,0,0)"/>
</g>
<mask id="mask4">
  <g filter="url(#alpha)">
<rect x="0" y="0" width="75" height="75" style="fill:rgb(0%,0%,0%);fill-opacity:0.25098;stroke:none;"/>
  </g>
</mask>
<clipPath id="clip5">
  <rect x="0" y="0" width="75" height="75"/>
</clipPath>
<g id="surface17" clip-path="url(#clip5)">
<path style="fill:none;stroke-width:10;stroke-linecap:butt;stroke-linejoin:miter;stroke:rgb(10.196079%,10.196079%,10.196079%);stroke-opacity:1;stroke-miterlimit:10;" d="M 225.093333 272 L 286.906667 272 " transform="matrix(0.146484,0,0,0.146484,0,0)"/>
</g>
<mask id="mask5">
  <g filter="url(#alpha)">
<rect x="0" y="0" width="75" height="75" style="fill:rgb(0%,0%,0%);fill-opacity:0.25098;stroke:none;"/>
  </g>
</mask>
<clipPath id="clip6">
  <rect x="0" y="0" width="75" height="75"/>
</clipPath>
<g id="surface20" clip-path="url(#clip6)">
<path style="fill:none;stroke-width:10;stroke-linecap:butt;stroke-linejoin:miter;stroke:rgb(10.196079%,10.196079%,10.196079%);stroke-opacity:1;stroke-miterlimit:10;" d="M 220.613333 261.706667 L 291.386667 261.706667 " transform="matrix(0.146484,0,0,0.146484,0,0)"/>
</g>
<mask id="mask6">
  <g filter="url(#alpha)">
<rect x="0" y="0" width="75" height="75" style="fill:rgb(0%,0%,0%);fill-opacity:0.25098;stroke:none;"/>
  </g>
</mask>
<clipPath id="clip7">
  <rect x="0" y="0" width="75" height="75"/>
</clipPath>
<g id="surface23" clip-path="url(#clip7)">
<path style="fill:none;stroke-width:10;stroke-linecap:butt;stroke-linejoin:miter;stroke:rgb(10.196079%,10.196079%,10.196079%);stroke-opacity:1;stroke-miterlimit:10;" d="M 225.093333 343.6 L 286.906667 343.6 " transform="matrix(0.146484,0,0,0.146484,0,0)"/>
</g>
<mask id="mask7">
  <g filter="url(#alpha)">
<rect x="0" y="0" width="75" height="75" style="fill:rgb(0%,0%,0%);fill-opacity:0.25098;stroke:none;"/>
  </g>
</mask>
<clipPath id="clip8">
  <rect x="0" y="0" width="75" height="75"/>
</clipPath>
<g id="surface26" clip-path="url(#clip8)">
<path style="fill:none;stroke-width:10;stroke-linecap:butt;stroke-linejoin:miter;stroke:rgb(10.196079%,10.196079%,10.196079%);stroke-opacity:1;stroke-miterlimit:10;" d="M 286.906667 227.493333 L 225.093333 227.493333 " transform="matrix(0.146484,0,0,0.146484,0,0)"/>
</g>
<mask id="mask8">
  <g filter="url(#alpha)">
<rect x="0" y="0" width="75" height="75" style="fill:rgb(0%,0%,0%);fill-opacity:0.25098;stroke:none;"/>
  </g>
</mask>
<clipPath id="clip9">
  <rect x="0" y="0" width="75" height="75"/>
</clipPath>
<g id="surface29" clip-path="url(#clip9)">
<path style="fill:none;stroke-width:10;stroke-linecap:butt;stroke-linejoin:miter;stroke:rgb(10.196079%,10.196079%,10.196079%);stroke-opacity:1;stroke-miterlimit:10;" d="M 232.213333 184.213333 C 235.306667 214.613333 218.293333 243.893333 190.906667 252.693333 L 127.893333 272.906667 C 98.586667 282.293333 66.693333 265.093333 56.506667 233.6 " transform="matrix(0.146484,0,0,0.146484,0,0)"/>
</g>
<mask id="mask9">
  <g filter="url(#alpha)">
<rect x="0" y="0" width="75" height="75" style="fill:rgb(0%,0%,0%);fill-opacity:0.501961;stroke:none;"/>
  </g>
</mask>
<clipPath id="clip10">
  <rect x="0" y="0" width="75" height="75"/>
</clipPath>
<g id="surface32" clip-path="url(#clip10)">
<path style="fill:none;stroke-width:10;stroke-linecap:butt;stroke-linejoin:miter;stroke:rgb(100%,100%,100%);stroke-opacity:1;stroke-miterlimit:10;" d="M 56.693333 238.506667 C 55.893333 235.493333 55.413333 232.586667 54.986667 229.6 C 51.093333 198.613333 68.213333 168.293333 96.106667 159.306667 L 203.2 125.013333 C 209.386667 122.986667 215.786667 126.986667 217.6 133.813333 L 230.293333 182.906667 " transform="matrix(0.146484,0,0,0.146484,0,0)"/>
</g>
<mask id="mask10">
  <g filter="url(#alpha)">
<rect x="0" y="0" width="75" height="75" style="fill:rgb(0%,0%,0%);fill-opacity:0.25098;stroke:none;"/>
  </g>
</mask>
<clipPath id="clip11">
  <rect x="0" y="0" width="75" height="75"/>
</clipPath>
<g id="surface35" clip-path="url(#clip11)">
<path style="fill:none;stroke-width:10;stroke-linecap:butt;stroke-linejoin:miter;stroke:rgb(10.196079%,10.196079%,10.196079%);stroke-opacity:1;stroke-miterlimit:10;" d="M 280.106667 181.493333 C 275.706667 212.906667 292.906667 243.706667 321.093333 252.693333 L 384.106667 272.906667 C 411.2 281.6 440.4 267.413333 452.586667 240.4 C 454.186667 236.906667 455.493333 233.2 456.506667 229.386667 " transform="matrix(0.146484,0,0,0.146484,0,0)"/>
</g>
<mask id="mask11">
  <g filter="url(#alpha)">
<rect x="0" y="0" width="75" height="75" style="fill:rgb(0%,0%,0%);fill-opacity:0.501961;stroke:none;"/>
  </g>
</mask>
<clipPath id="clip12">
  <rect x="0" y="0" width="75" height="75"/>
</clipPath>
<g id="surface38" clip-path="url(#clip12)">
<path style="fill:none;stroke-width:10;stroke-linecap:butt;stroke-linejoin:miter;stroke:rgb(100%,100%,100%);stroke-opacity:1;stroke-miterlimit:10;" d="M 457.306667 226.293333 C 459.706667 196.4 442.8 167.893333 415.893333 159.306667 L 308.8 125.013333 C 302.613333 122.986667 296.213333 126.986667 294.4 133.813333 L 283.093333 177.306667 " transform="matrix(0.146484,0,0,0.146484,0,0)"/>
</g>
<mask id="mask12">
  <g filter="url(#alpha)">
<rect x="0" y="0" width="75" height="75" style="fill:rgb(0%,0%,0%);fill-opacity:0.501961;stroke:none;"/>
  </g>
</mask>
<clipPath id="clip13">
  <rect x="0" y="0" width="75" height="75"/>
</clipPath>
<g id="surface41" clip-path="url(#clip13)">
<path style=" stroke:none;fill-rule:nonzero;fill:rgb(100%,100%,100%);fill-opacity:1;" d="M 55.355469 30 C 55.035156 30 54.726562 29.78125 54.640625 29.457031 C 54.449219 28.785156 53.992188 28.226562 53.378906 27.890625 C 52.765625 27.554688 52.0625 27.464844 51.371094 27.671875 C 50.976562 27.789062 50.566406 27.554688 50.449219 27.160156 C 50.332031 26.761719 50.566406 26.351562 50.960938 26.234375 C 52.015625 25.929688 53.128906 26.058594 54.097656 26.585938 C 55.0625 27.113281 55.765625 27.992188 56.058594 29.0625 C 56.175781 29.457031 55.941406 29.867188 55.546875 29.984375 C 55.488281 29.984375 55.429688 30 55.355469 30 Z M 55.355469 30 "/>
</g>
<mask id="mask13">
  <g filter="url(#alpha)">
<rect x="0" y="0" width="75" height="75" style="fill:rgb(0%,0%,0%);fill-opacity:0.501961;stroke:none;"/>
  </g>
</mask>
<clipPath id="clip14">
  <rect x="0" y="0" width="75" height="75"/>
</clipPath>
<g id="surface44" clip-path="url(#clip14)">
<path style=" stroke:none;fill-rule:nonzero;fill:rgb(100%,100%,100%);fill-opacity:1;" d="M 25.839844 30 C 25.519531 30 25.210938 29.78125 25.121094 29.457031 C 24.929688 28.785156 24.476562 28.226562 23.863281 27.890625 C 23.246094 27.554688 22.542969 27.464844 21.855469 27.671875 C 21.460938 27.789062 21.050781 27.554688 20.933594 27.160156 C 20.816406 26.761719 21.050781 26.351562 21.445312 26.234375 C 22.5 25.929688 23.613281 26.058594 24.578125 26.585938 C 25.546875 27.113281 26.25 27.992188 26.542969 29.0625 C 26.660156 29.457031 26.425781 29.867188 26.03125 29.984375 C 25.984375 29.984375 25.914062 30 25.839844 30 Z M 25.839844 30 "/>
</g>
<mask id="mask14">
  <g filter="url(#alpha)">
<rect x="0" y="0" width="75" height="75" style="fill:rgb(0%,0%,0%);fill-opacity:0.25098;stroke:none;"/>
  </g>
</mask>
<clipPath id="clip15">
  <rect x="0" y="0" width="75" height="75"/>
</clipPath>
<g id="surface47" clip-path="url(#clip15)">
<path style="fill:none;stroke-width:10;stroke-linecap:butt;stroke-linejoin:miter;stroke:rgb(10.196079%,10.196079%,10.196079%);stroke-opacity:1;stroke-miterlimit:10;" d="M 321.2 199.893333 C 326.693333 180.8 346.586667 169.893333 365.813333 175.413333 C 382.4 180.213333 393.013333 195.893333 391.786667 212.506667 " transform="matrix(0.146484,0,0,0.146484,0,0)"/>
</g>
<mask id="mask15">
  <g filter="url(#alpha)">
<rect x="0" y="0" width="75" height="75" style="fill:rgb(0%,0%,0%);fill-opacity:0.25098;stroke:none;"/>
  </g>
</mask>
<clipPath id="clip16">
  <rect x="0" y="0" width="75" height="75"/>
</clipPath>
<g id="surface50" clip-path="url(#clip16)">
<path style="fill:none;stroke-width:10;stroke-linecap:butt;stroke-linejoin:miter;stroke:rgb(10.196079%,10.196079%,10.196079%);stroke-opacity:1;stroke-miterlimit:10;" d="M 389.6 219.306667 C 384.106667 238.4 364.586667 249.493333 345.893333 244.106667 C 329.706667 239.413333 319.6 223.893333 320.8 207.413333 " transform="matrix(0.146484,0,0,0.146484,0,0)"/>
</g>
<mask id="mask16">
  <g filter="url(#alpha)">
<rect x="0" y="0" width="75" height="75" style="fill:rgb(0%,0%,0%);fill-opacity:0.25098;stroke:none;"/>
  </g>
</mask>
<clipPath id="clip17">
  <rect x="0" y="0" width="75" height="75"/>
</clipPath>
<g id="surface53" clip-path="url(#clip17)">
<path style="fill:none;stroke-width:10;stroke-linecap:butt;stroke-linejoin:miter;stroke:rgb(10.196079%,10.196079%,10.196079%);stroke-opacity:1;stroke-miterlimit:10;" d="M 122.4 219.306667 C 127.893333 238.4 147.413333 249.493333 166 244.106667 C 182.106667 239.493333 192.293333 223.893333 191.093333 207.493333 " transform="matrix(0.146484,0,0,0.146484,0,0)"/>
</g>
<mask id="mask17">
  <g filter="url(#alpha)">
<rect x="0" y="0" width="75" height="75" style="fill:rgb(0%,0%,0%);fill-opacity:0.25098;stroke:none;"/>
  </g>
</mask>
<clipPath id="clip18">
  <rect x="0" y="0" width="75" height="75"/>
</clipPath>
<g id="surface56" clip-path="url(#clip18)">
<path style="fill:none;stroke-width:10;stroke-linecap:butt;stroke-linejoin:miter;stroke:rgb(10.196079%,10.196079%,10.196079%);stroke-opacity:1;stroke-miterlimit:10;" d="M 190.8 200.106667 C 185.306667 181.013333 165.306667 170.106667 146.106667 175.6 C 129.706667 180.293333 119.2 195.493333 119.893333 211.706667 " transform="matrix(0.146484,0,0,0.146484,0,0)"/>
</g>
</defs>
<g id="surface1">
<path style=" stroke:none;fill-rule:nonzero;fill:rgb(69.803923%,92.156863%,94.901961%);fill-opacity:1;" d="M 65.828125 37.5 C 65.828125 21.855469 53.144531 9.171875 37.5 9.171875 C 21.855469 9.171875 9.171875 21.855469 9.171875 37.5 C 9.171875 53.144531 21.855469 65.828125 37.5 65.828125 C 53.144531 65.828125 65.828125 53.144531 65.828125 37.5 Z M 65.828125 37.5 "/>
<path style=" stroke:none;fill-rule:nonzero;fill:rgb(58.431375%,63.529414%,67.450982%);fill-opacity:1;" d="M 9.757812 20.347656 L 8.933594 19.9375 L 9.34375 19.117188 C 9.519531 18.75 9.375 18.3125 9.007812 18.132812 C 8.640625 17.960938 8.203125 18.105469 8.027344 18.472656 L 7.617188 19.292969 L 6.796875 18.882812 C 6.429688 18.707031 5.992188 18.851562 5.816406 19.21875 C 5.640625 19.585938 5.785156 20.023438 6.152344 20.199219 L 6.972656 20.609375 L 6.5625 21.429688 C 6.386719 21.796875 6.53125 22.234375 6.898438 22.410156 C 7 22.46875 7.117188 22.484375 7.222656 22.484375 C 7.484375 22.484375 7.75 22.339844 7.878906 22.074219 L 8.289062 21.253906 L 9.109375 21.664062 C 9.214844 21.722656 9.332031 21.738281 9.433594 21.738281 C 9.695312 21.738281 9.960938 21.589844 10.09375 21.328125 C 10.269531 20.960938 10.121094 20.523438 9.757812 20.347656 Z M 9.757812 20.347656 "/>
<path style=" stroke:none;fill-rule:nonzero;fill:rgb(58.431375%,63.529414%,67.450982%);fill-opacity:1;" d="M 38.511719 16.15625 L 37.632812 15.90625 L 37.878906 15.03125 C 38 14.632812 37.761719 14.238281 37.382812 14.121094 C 36.988281 14.003906 36.589844 14.238281 36.472656 14.617188 L 36.226562 15.5 L 35.347656 15.25 C 34.953125 15.132812 34.554688 15.367188 34.4375 15.746094 C 34.320312 16.140625 34.554688 16.539062 34.9375 16.65625 L 35.816406 16.90625 L 35.566406 17.78125 C 35.449219 18.179688 35.683594 18.574219 36.0625 18.691406 C 36.136719 18.707031 36.195312 18.71875 36.269531 18.71875 C 36.59375 18.71875 36.882812 18.515625 36.972656 18.195312 L 37.222656 17.316406 L 38.101562 17.5625 C 38.171875 17.578125 38.234375 17.59375 38.304688 17.59375 C 38.628906 17.59375 38.921875 17.386719 39.007812 17.066406 C 39.109375 16.671875 38.890625 16.257812 38.511719 16.15625 Z M 38.511719 16.15625 "/>
<path style=" stroke:none;fill-rule:nonzero;fill:rgb(58.431375%,63.529414%,67.450982%);fill-opacity:1;" d="M 23.757812 47.578125 L 22.867188 47.753906 L 22.691406 46.859375 C 22.617188 46.464844 22.222656 46.203125 21.828125 46.289062 C 21.429688 46.363281 21.167969 46.757812 21.253906 47.152344 L 21.429688 48.046875 L 20.539062 48.222656 C 20.140625 48.296875 19.878906 48.691406 19.964844 49.085938 C 20.039062 49.4375 20.347656 49.671875 20.683594 49.671875 C 20.726562 49.671875 20.785156 49.671875 20.828125 49.65625 L 21.722656 49.480469 L 21.898438 50.375 C 21.972656 50.726562 22.28125 50.960938 22.617188 50.960938 C 22.660156 50.960938 22.71875 50.960938 22.761719 50.945312 C 23.160156 50.875 23.421875 50.476562 23.335938 50.082031 L 23.160156 49.1875 L 24.054688 49.011719 C 24.449219 48.941406 24.710938 48.546875 24.625 48.148438 C 24.550781 47.753906 24.15625 47.492188 23.757812 47.578125 Z M 23.757812 47.578125 "/>
<path style=" stroke:none;fill-rule:nonzero;fill:rgb(58.431375%,63.529414%,67.450982%);fill-opacity:1;" d="M 46.464844 4.964844 C 45.382812 4.964844 44.5 5.84375 44.5 6.929688 C 44.5 8.011719 45.382812 8.890625 46.464844 8.890625 C 47.546875 8.890625 48.425781 8.011719 48.425781 6.929688 C 48.429688 5.859375 47.546875 4.964844 46.464844 4.964844 Z M 46.464844 7.425781 C 46.1875 7.425781 45.96875 7.207031 45.96875 6.929688 C 45.96875 6.652344 46.1875 6.429688 46.464844 6.429688 C 46.742188 6.429688 46.960938 6.652344 46.960938 6.929688 C 46.960938 7.207031 46.742188 7.425781 46.464844 7.425781 Z M 46.464844 7.425781 "/>
<path style=" stroke:none;fill-rule:nonzero;fill:rgb(100%,83.529413%,30.980393%);fill-opacity:1;" d="M 53.4375 44.546875 C 52.355469 44.546875 51.476562 45.425781 51.476562 46.507812 C 51.476562 47.59375 52.355469 48.472656 53.4375 48.472656 C 54.523438 48.472656 55.398438 47.59375 55.398438 46.507812 C 55.398438 45.425781 54.523438 44.546875 53.4375 44.546875 Z M 53.4375 46.992188 C 53.160156 46.992188 52.941406 46.773438 52.941406 46.496094 C 52.941406 46.214844 53.160156 45.996094 53.4375 45.996094 C 53.714844 45.996094 53.9375 46.214844 53.9375 46.496094 C 53.9375 46.773438 53.703125 46.992188 53.4375 46.992188 Z M 53.4375 46.992188 "/>
<path style=" stroke:none;fill-rule:nonzero;fill:rgb(100%,83.529413%,30.980393%);fill-opacity:1;" d="M 63.691406 15.804688 L 62.960938 15.265625 L 63.5 14.53125 C 63.734375 14.210938 63.675781 13.753906 63.355469 13.507812 C 63.03125 13.273438 62.578125 13.328125 62.328125 13.652344 L 61.789062 14.382812 L 61.054688 13.84375 C 60.734375 13.609375 60.277344 13.667969 60.03125 13.988281 C 59.796875 14.3125 59.851562 14.765625 60.175781 15.015625 L 60.90625 15.554688 L 60.367188 16.289062 C 60.132812 16.609375 60.191406 17.066406 60.511719 17.3125 C 60.644531 17.417969 60.789062 17.460938 60.953125 17.460938 C 61.171875 17.460938 61.390625 17.359375 61.539062 17.167969 L 62.078125 16.4375 L 62.8125 16.976562 C 62.945312 17.078125 63.089844 17.125 63.25 17.125 C 63.472656 17.125 63.691406 17.023438 63.835938 16.832031 C 64.085938 16.492188 64.015625 16.039062 63.691406 15.804688 Z M 63.691406 15.804688 "/>
<path style=" stroke:none;fill-rule:nonzero;fill:rgb(100%,83.529413%,30.980393%);fill-opacity:1;" d="M 23.820312 6.285156 C 22.734375 6.285156 21.855469 7.164062 21.855469 8.246094 C 21.855469 9.332031 22.734375 10.210938 23.820312 10.210938 C 24.902344 10.210938 25.78125 9.332031 25.78125 8.246094 C 25.78125 7.164062 24.902344 6.285156 23.820312 6.285156 Z M 23.820312 8.746094 C 23.539062 8.746094 23.320312 8.523438 23.320312 8.246094 C 23.320312 7.96875 23.539062 7.75 23.820312 7.75 C 24.097656 7.75 24.316406 7.96875 24.316406 8.246094 C 24.316406 8.523438 24.097656 8.746094 23.820312 8.746094 Z M 23.820312 8.746094 "/>
<path style=" stroke:none;fill-rule:nonzero;fill:rgb(43.529412%,42.745098%,42.352942%);fill-opacity:1;" d="M 23.3125 27.597656 C 23.109375 26.898438 22.378906 26.496094 21.679688 26.695312 C 20.980469 26.898438 20.574219 27.628906 20.777344 28.328125 C 20.980469 29.027344 21.710938 29.429688 22.410156 29.230469 C 23.109375 29.027344 23.511719 28.296875 23.3125 27.597656 Z M 23.3125 27.597656 "/>
<path style=" stroke:none;fill-rule:nonzero;fill:rgb(43.529412%,42.745098%,42.352942%);fill-opacity:1;" d="M 26.5625 37.117188 C 26.363281 36.417969 25.632812 36.015625 24.933594 36.214844 C 24.230469 36.417969 23.828125 37.148438 24.03125 37.847656 C 24.230469 38.546875 24.960938 38.953125 25.660156 38.75 C 26.359375 38.550781 26.765625 37.816406 26.5625 37.117188 Z M 26.5625 37.117188 "/>
<path style="fill-rule:nonzero;fill:rgb(45.882353%,45.882353%,45.882353%);fill-opacity:1;stroke-width:10;stroke-linecap:butt;stroke-linejoin:miter;stroke:rgb(10.196079%,10.196079%,10.196079%);stroke-opacity:1;stroke-miterlimit:10;" d="M 229.813333 232.906667 L 282.213333 232.906667 L 282.213333 348.506667 L 229.813333 348.506667 Z M 229.813333 232.906667 " transform="matrix(0.146484,0,0,0.146484,0,0)"/>
<path style=" stroke:none;fill-rule:nonzero;fill:rgb(94.509804%,78.823531%,24.313726%);fill-opacity:1;" d="M 32.972656 39.109375 L 42.027344 39.109375 C 42.582031 39.109375 43.035156 38.65625 43.035156 38.101562 L 43.035156 33.25 L 31.960938 33.25 L 31.960938 38.101562 C 31.960938 38.65625 32.417969 39.109375 32.972656 39.109375 Z M 32.972656 39.109375 "/>
<use xlink:href="#surface5" mask="url(#mask0)"/>
<path style="fill:none;stroke-width:10;stroke-linecap:butt;stroke-linejoin:miter;stroke:rgb(10.196079%,10.196079%,10.196079%);stroke-opacity:1;stroke-miterlimit:10;" d="M 225.093333 266.8 L 286.906667 266.8 C 290.693333 266.8 293.786667 263.706667 293.786667 259.893333 L 293.786667 226.8 L 218.186667 226.8 L 218.186667 259.893333 C 218.186667 263.706667 221.306667 266.8 225.093333 266.8 Z M 225.093333 266.8 " transform="matrix(0.146484,0,0,0.146484,0,0)"/>
<path style=" stroke:none;fill-rule:nonzero;fill:rgb(26.666668%,26.666668%,26.666668%);fill-opacity:1;" d="M 27.628906 23.875 L 47.386719 23.875 L 47.386719 34.335938 L 27.628906 34.335938 Z M 27.628906 23.875 "/>
<use xlink:href="#surface8" mask="url(#mask1)"/>
<path style="fill:none;stroke-width:10;stroke-linecap:butt;stroke-linejoin:miter;stroke:rgb(10.196079%,10.196079%,10.196079%);stroke-opacity:1;stroke-miterlimit:10;" d="M 188.613333 162.986667 L 323.493333 162.986667 L 323.493333 234.4 L 188.613333 234.4 Z M 188.613333 162.986667 " transform="matrix(0.146484,0,0,0.146484,0,0)"/>
<path style=" stroke:none;fill-rule:nonzero;fill:rgb(84.705883%,84.705883%,84.705883%);fill-opacity:1;" d="M 28.167969 57.128906 L 46.832031 57.128906 C 47.140625 57.128906 47.375 56.878906 47.375 56.585938 L 47.375 52.074219 C 47.375 51.765625 47.125 51.53125 46.832031 51.53125 L 28.167969 51.53125 C 27.863281 51.53125 27.628906 51.78125 27.628906 52.074219 L 27.628906 56.585938 C 27.625 56.878906 27.859375 57.128906 28.167969 57.128906 Z M 28.167969 57.128906 "/>
<use xlink:href="#surface11" mask="url(#mask2)"/>
<use xlink:href="#surface14" mask="url(#mask3)"/>
<path style=" stroke:none;fill-rule:nonzero;fill:rgb(84.705883%,84.705883%,84.705883%);fill-opacity:1;" d="M 27.964844 38.027344 L 18.734375 40.984375 C 14.265625 42.421875 9.59375 39.550781 8.304688 34.570312 C 7.015625 29.605469 9.59375 24.40625 14.078125 22.96875 L 29.765625 17.945312 C 30.671875 17.652344 31.609375 18.238281 31.875 19.234375 L 33.734375 26.425781 C 35.023438 31.390625 32.445312 36.59375 27.964844 38.027344 Z M 27.964844 38.027344 "/>
<path style=" stroke:none;fill-rule:nonzero;fill:rgb(45.882353%,45.882353%,45.882353%);fill-opacity:1;" d="M 30.136719 22.105469 C 29.9375 21.40625 29.207031 21 28.503906 21.203125 C 27.804688 21.40625 27.402344 22.136719 27.605469 22.835938 C 27.804688 23.535156 28.535156 23.9375 29.234375 23.738281 C 29.933594 23.535156 30.339844 22.804688 30.136719 22.105469 Z M 30.136719 22.105469 "/>
<path style=" stroke:none;fill-rule:nonzero;fill:rgb(84.705883%,84.705883%,84.705883%);fill-opacity:1;" d="M 47.035156 38.027344 L 56.265625 40.984375 C 60.734375 42.421875 65.40625 39.550781 66.695312 34.570312 C 67.984375 29.605469 65.40625 24.40625 60.921875 22.96875 L 45.234375 17.945312 C 44.328125 17.652344 43.390625 18.238281 43.125 19.234375 L 41.265625 26.425781 C 39.976562 31.390625 42.554688 36.59375 47.035156 38.027344 Z M 47.035156 38.027344 "/>
<use xlink:href="#surface17" mask="url(#mask4)"/>
<use xlink:href="#surface20" mask="url(#mask5)"/>
<use xlink:href="#surface23" mask="url(#mask6)"/>
<use xlink:href="#surface26" mask="url(#mask7)"/>
<use xlink:href="#surface29" mask="url(#mask8)"/>
<use xlink:href="#surface32" mask="url(#mask9)"/>
<use xlink:href="#surface35" mask="url(#mask10)"/>
<use xlink:href="#surface38" mask="url(#mask11)"/>
<path style=" stroke:none;fill-rule:nonzero;fill:rgb(26.666668%,26.666668%,26.666668%);fill-opacity:1;" d="M 53.714844 24.992188 C 50.925781 24.1875 48.011719 25.796875 47.207031 28.589844 C 46.402344 31.378906 48.011719 34.292969 50.804688 35.097656 C 53.59375 35.902344 56.507812 34.289062 57.3125 31.5 C 58.117188 28.707031 56.503906 25.792969 53.714844 24.992188 Z M 53.714844 24.992188 "/>
<path style=" stroke:none;fill-rule:nonzero;fill:rgb(45.882353%,45.882353%,45.882353%);fill-opacity:1;" d="M 46.484375 21.207031 C 45.785156 21.003906 45.054688 21.40625 44.851562 22.109375 C 44.652344 22.808594 45.054688 23.539062 45.753906 23.738281 C 46.453125 23.941406 47.183594 23.535156 47.386719 22.835938 C 47.589844 22.136719 47.183594 21.40625 46.484375 21.207031 Z M 46.484375 21.207031 "/>
<path style=" stroke:none;fill-rule:nonzero;fill:rgb(45.882353%,45.882353%,45.882353%);fill-opacity:1;" d="M 61.953125 26.710938 C 61.25 26.507812 60.519531 26.914062 60.320312 27.613281 C 60.117188 28.3125 60.523438 29.042969 61.222656 29.246094 C 61.921875 29.445312 62.652344 29.042969 62.851562 28.34375 C 63.054688 27.644531 62.652344 26.914062 61.953125 26.710938 Z M 61.953125 26.710938 "/>
<path style=" stroke:none;fill-rule:nonzero;fill:rgb(45.882353%,45.882353%,45.882353%);fill-opacity:1;" d="M 58.699219 36.234375 C 58 36.03125 57.269531 36.4375 57.066406 37.136719 C 56.867188 37.835938 57.269531 38.566406 57.96875 38.765625 C 58.667969 38.96875 59.398438 38.566406 59.601562 37.863281 C 59.800781 37.164062 59.398438 36.433594 58.699219 36.234375 Z M 58.699219 36.234375 "/>
<path style=" stroke:none;fill-rule:nonzero;fill:rgb(45.882353%,45.882353%,45.882353%);fill-opacity:1;" d="M 14.933594 27.613281 C 14.734375 26.910156 14.003906 26.507812 13.304688 26.710938 C 12.605469 26.910156 12.199219 27.640625 12.402344 28.339844 C 12.601562 29.039062 13.332031 29.445312 14.035156 29.242188 C 14.734375 29.042969 15.136719 28.3125 14.933594 27.613281 Z M 14.933594 27.613281 "/>
<path style=" stroke:none;fill-rule:nonzero;fill:rgb(45.882353%,45.882353%,45.882353%);fill-opacity:1;" d="M 18.1875 37.132812 C 17.984375 36.433594 17.253906 36.027344 16.554688 36.230469 C 15.855469 36.433594 15.453125 37.164062 15.652344 37.863281 C 15.855469 38.5625 16.585938 38.964844 17.285156 38.765625 C 17.984375 38.5625 18.390625 37.832031 18.1875 37.132812 Z M 18.1875 37.132812 "/>
<use xlink:href="#surface41" mask="url(#mask12)"/>
<path style=" stroke:none;fill-rule:nonzero;fill:rgb(26.666668%,26.666668%,26.666668%);fill-opacity:1;" d="M 27.804688 28.585938 C 27 25.792969 24.085938 24.183594 21.296875 24.988281 C 18.503906 25.792969 16.894531 28.707031 17.699219 31.496094 C 18.5 34.289062 21.414062 35.898438 24.207031 35.09375 C 26.996094 34.289062 28.609375 31.375 27.804688 28.585938 Z M 27.804688 28.585938 "/>
<use xlink:href="#surface44" mask="url(#mask13)"/>
<path style="fill:none;stroke-width:10;stroke-linecap:butt;stroke-linejoin:miter;stroke:rgb(10.196079%,10.196079%,10.196079%);stroke-opacity:1;stroke-miterlimit:10;" d="M 190.906667 259.6 L 127.893333 279.786667 C 97.386667 289.6 65.493333 270 56.693333 236 C 47.893333 202.106667 65.493333 166.613333 96.106667 156.8 L 203.2 122.506667 C 209.386667 120.506667 215.786667 124.506667 217.6 131.306667 L 230.293333 180.4 C 239.093333 214.293333 221.493333 249.813333 190.906667 259.6 Z M 190.906667 259.6 " transform="matrix(0.146484,0,0,0.146484,0,0)"/>
<path style="fill:none;stroke-width:10;stroke-linecap:butt;stroke-linejoin:miter;stroke:rgb(10.196079%,10.196079%,10.196079%);stroke-opacity:1;stroke-miterlimit:10;" d="M 321.093333 259.6 L 384.106667 279.786667 C 414.613333 289.6 446.506667 270 455.306667 236 C 464.106667 202.106667 446.506667 166.613333 415.893333 156.8 L 308.8 122.506667 C 302.613333 120.506667 296.213333 124.506667 294.4 131.306667 L 281.706667 180.4 C 272.906667 214.293333 290.506667 249.813333 321.093333 259.6 Z M 321.093333 259.6 " transform="matrix(0.146484,0,0,0.146484,0,0)"/>
<path style="fill:none;stroke-width:10;stroke-linecap:butt;stroke-linejoin:miter;stroke:rgb(10.196079%,10.196079%,10.196079%);stroke-opacity:1;stroke-miterlimit:10;" d="M 229.813333 266.986667 L 282.213333 266.986667 L 282.213333 351.493333 L 229.813333 351.493333 Z M 229.813333 266.986667 " transform="matrix(0.146484,0,0,0.146484,0,0)"/>
<use xlink:href="#surface47" mask="url(#mask14)"/>
<use xlink:href="#surface50" mask="url(#mask15)"/>
<use xlink:href="#surface53" mask="url(#mask16)"/>
<use xlink:href="#surface56" mask="url(#mask17)"/>
<path style="fill:none;stroke-width:10;stroke-linecap:butt;stroke-linejoin:miter;stroke:rgb(10.196079%,10.196079%,10.196079%);stroke-opacity:1;stroke-miterlimit:10;" d="M 392.588072 205.102666 C 392.596345 185.285526 376.531932 169.21028 356.689167 169.20939 C 336.872027 169.201117 320.796781 185.26553 320.79589 205.108295 C 320.787618 224.925435 336.877657 240.993299 356.694796 241.001572 C 376.537562 241.002462 392.605425 224.912424 392.588072 205.102666 Z M 392.588072 205.102666 " transform="matrix(0.0405469,-0.140757,0.140757,0.0405469,8.927021,71.935371)"/>
<path style="fill:none;stroke-width:10;stroke-linecap:butt;stroke-linejoin:miter;stroke:rgb(10.196079%,10.196079%,10.196079%);stroke-opacity:1;stroke-miterlimit:10;" d="M 191.20163 205.102901 C 191.20074 185.260136 175.125494 169.195723 155.308354 169.203995 C 135.465589 169.204886 119.401176 185.280131 119.409448 205.097271 C 119.384714 224.932655 135.459959 240.997068 155.302724 240.996177 C 175.119864 240.987905 191.209903 224.920041 191.20163 205.102901 Z M 191.20163 205.102901 " transform="matrix(0.140757,-0.0405469,0.0405469,0.140757,-7.424531,7.468931)"/>
<path style="fill:none;stroke-width:10;stroke-linecap:butt;stroke-linejoin:miter;stroke:rgb(10.196079%,10.196079%,10.196079%);stroke-opacity:1;stroke-miterlimit:10;" d="M 192.293333 389.813333 L 319.706667 389.813333 C 321.813333 389.813333 323.413333 388.106667 323.413333 386.106667 L 323.413333 355.306667 C 323.413333 353.2 321.706667 351.6 319.706667 351.6 L 192.293333 351.6 C 190.213333 351.6 188.613333 353.306667 188.613333 355.306667 L 188.613333 386.106667 C 188.586667 388.106667 190.186667 389.813333 192.293333 389.813333 Z M 192.293333 389.813333 " transform="matrix(0.146484,0,0,0.146484,0,0)"/>
</g>
</svg>
